<mxfile host="app.diagrams.net" agent="Mozilla/5.0 (Windows NT 10.0; Win64; x64) AppleWebKit/537.36 (KHTML, like Gecko) Chrome/134.0.0.0 Safari/537.36" version="26.1.0">
  <diagram id="C5RBs43oDa-KdzZeNtuy" name="Page-1">
    <mxGraphModel dx="1050" dy="556" grid="0" gridSize="10" guides="1" tooltips="1" connect="1" arrows="1" fold="1" page="1" pageScale="1" pageWidth="827" pageHeight="1169" background="none" math="0" shadow="0">
      <root>
        <mxCell id="WIyWlLk6GJQsqaUBKTNV-0" />
        <mxCell id="WIyWlLk6GJQsqaUBKTNV-1" parent="WIyWlLk6GJQsqaUBKTNV-0" />
        <mxCell id="qA7TBKh8Xf4ynkCTTNnx-27" style="edgeStyle=orthogonalEdgeStyle;rounded=0;orthogonalLoop=1;jettySize=auto;html=1;entryX=0.5;entryY=0;entryDx=0;entryDy=0;endArrow=block;endFill=0;" edge="1" parent="WIyWlLk6GJQsqaUBKTNV-1" source="qA7TBKh8Xf4ynkCTTNnx-0" target="qA7TBKh8Xf4ynkCTTNnx-1">
          <mxGeometry relative="1" as="geometry" />
        </mxCell>
        <mxCell id="qA7TBKh8Xf4ynkCTTNnx-0" value="KDDI sends Fix/Release request" style="rounded=1;whiteSpace=wrap;html=1;fontSize=12;glass=0;strokeWidth=1;shadow=0;" vertex="1" parent="WIyWlLk6GJQsqaUBKTNV-1">
          <mxGeometry x="767" y="40" width="118" height="40" as="geometry" />
        </mxCell>
        <mxCell id="qA7TBKh8Xf4ynkCTTNnx-15" style="edgeStyle=orthogonalEdgeStyle;rounded=0;orthogonalLoop=1;jettySize=auto;html=1;entryX=0.5;entryY=0;entryDx=0;entryDy=0;endArrow=block;endFill=0;" edge="1" parent="WIyWlLk6GJQsqaUBKTNV-1" source="qA7TBKh8Xf4ynkCTTNnx-1" target="qA7TBKh8Xf4ynkCTTNnx-2">
          <mxGeometry relative="1" as="geometry" />
        </mxCell>
        <mxCell id="qA7TBKh8Xf4ynkCTTNnx-1" value="Mediba sends request to Vietlink" style="rounded=1;whiteSpace=wrap;html=1;fontSize=12;glass=0;strokeWidth=1;shadow=0;" vertex="1" parent="WIyWlLk6GJQsqaUBKTNV-1">
          <mxGeometry x="766" y="115" width="120" height="40" as="geometry" />
        </mxCell>
        <mxCell id="qA7TBKh8Xf4ynkCTTNnx-17" value="" style="edgeStyle=orthogonalEdgeStyle;rounded=0;orthogonalLoop=1;jettySize=auto;html=1;endArrow=block;endFill=0;" edge="1" parent="WIyWlLk6GJQsqaUBKTNV-1" source="qA7TBKh8Xf4ynkCTTNnx-2" target="qA7TBKh8Xf4ynkCTTNnx-3">
          <mxGeometry relative="1" as="geometry" />
        </mxCell>
        <mxCell id="qA7TBKh8Xf4ynkCTTNnx-2" value="Vietlink creates branches for coding" style="rounded=1;whiteSpace=wrap;html=1;fontSize=12;glass=0;strokeWidth=1;shadow=0;" vertex="1" parent="WIyWlLk6GJQsqaUBKTNV-1">
          <mxGeometry x="766" y="190" width="120" height="40" as="geometry" />
        </mxCell>
        <mxCell id="qA7TBKh8Xf4ynkCTTNnx-19" style="edgeStyle=orthogonalEdgeStyle;rounded=0;orthogonalLoop=1;jettySize=auto;html=1;entryX=0.5;entryY=0;entryDx=0;entryDy=0;endArrow=block;endFill=0;" edge="1" parent="WIyWlLk6GJQsqaUBKTNV-1" source="qA7TBKh8Xf4ynkCTTNnx-3" target="qA7TBKh8Xf4ynkCTTNnx-4">
          <mxGeometry relative="1" as="geometry" />
        </mxCell>
        <mxCell id="qA7TBKh8Xf4ynkCTTNnx-3" value="Vietlink creates branches for coding" style="rounded=1;whiteSpace=wrap;html=1;fontSize=12;glass=0;strokeWidth=1;shadow=0;" vertex="1" parent="WIyWlLk6GJQsqaUBKTNV-1">
          <mxGeometry x="766" y="274" width="120" height="40" as="geometry" />
        </mxCell>
        <mxCell id="qA7TBKh8Xf4ynkCTTNnx-20" style="edgeStyle=orthogonalEdgeStyle;rounded=0;orthogonalLoop=1;jettySize=auto;html=1;entryX=0.5;entryY=0;entryDx=0;entryDy=0;endArrow=block;endFill=0;" edge="1" parent="WIyWlLk6GJQsqaUBKTNV-1" source="qA7TBKh8Xf4ynkCTTNnx-4" target="qA7TBKh8Xf4ynkCTTNnx-5">
          <mxGeometry relative="1" as="geometry" />
        </mxCell>
        <mxCell id="qA7TBKh8Xf4ynkCTTNnx-4" value="Vietlink codes" style="rounded=1;whiteSpace=wrap;html=1;fontSize=12;glass=0;strokeWidth=1;shadow=0;" vertex="1" parent="WIyWlLk6GJQsqaUBKTNV-1">
          <mxGeometry x="766" y="350" width="120" height="40" as="geometry" />
        </mxCell>
        <mxCell id="qA7TBKh8Xf4ynkCTTNnx-21" style="edgeStyle=orthogonalEdgeStyle;rounded=0;orthogonalLoop=1;jettySize=auto;html=1;entryX=0.5;entryY=0;entryDx=0;entryDy=0;endArrow=block;endFill=0;" edge="1" parent="WIyWlLk6GJQsqaUBKTNV-1" source="qA7TBKh8Xf4ynkCTTNnx-5" target="qA7TBKh8Xf4ynkCTTNnx-7">
          <mxGeometry relative="1" as="geometry" />
        </mxCell>
        <mxCell id="qA7TBKh8Xf4ynkCTTNnx-5" value="Vietlink sends PR to Mediba for Release" style="rounded=1;whiteSpace=wrap;html=1;fontSize=12;glass=0;strokeWidth=1;shadow=0;" vertex="1" parent="WIyWlLk6GJQsqaUBKTNV-1">
          <mxGeometry x="766" y="428" width="120" height="40" as="geometry" />
        </mxCell>
        <mxCell id="qA7TBKh8Xf4ynkCTTNnx-22" value="" style="edgeStyle=orthogonalEdgeStyle;rounded=0;orthogonalLoop=1;jettySize=auto;html=1;endArrow=block;endFill=0;" edge="1" parent="WIyWlLk6GJQsqaUBKTNV-1" source="qA7TBKh8Xf4ynkCTTNnx-7" target="qA7TBKh8Xf4ynkCTTNnx-10">
          <mxGeometry relative="1" as="geometry" />
        </mxCell>
        <mxCell id="qA7TBKh8Xf4ynkCTTNnx-25" value="" style="edgeStyle=orthogonalEdgeStyle;rounded=0;orthogonalLoop=1;jettySize=auto;html=1;endArrow=block;endFill=0;" edge="1" parent="WIyWlLk6GJQsqaUBKTNV-1" source="qA7TBKh8Xf4ynkCTTNnx-7" target="qA7TBKh8Xf4ynkCTTNnx-13">
          <mxGeometry relative="1" as="geometry" />
        </mxCell>
        <mxCell id="qA7TBKh8Xf4ynkCTTNnx-7" value="Code is &lt;br&gt;needed to be fixed?" style="rhombus;whiteSpace=wrap;html=1;shadow=0;fontFamily=Helvetica;fontSize=12;align=center;strokeWidth=1;spacing=6;spacingTop=-4;" vertex="1" parent="WIyWlLk6GJQsqaUBKTNV-1">
          <mxGeometry x="776" y="498" width="100" height="80" as="geometry" />
        </mxCell>
        <mxCell id="qA7TBKh8Xf4ynkCTTNnx-24" style="edgeStyle=orthogonalEdgeStyle;rounded=0;orthogonalLoop=1;jettySize=auto;html=1;entryX=1;entryY=0.75;entryDx=0;entryDy=0;endArrow=block;endFill=0;" edge="1" parent="WIyWlLk6GJQsqaUBKTNV-1" source="qA7TBKh8Xf4ynkCTTNnx-9" target="qA7TBKh8Xf4ynkCTTNnx-4">
          <mxGeometry relative="1" as="geometry">
            <Array as="points">
              <mxPoint x="1014" y="380" />
            </Array>
          </mxGeometry>
        </mxCell>
        <mxCell id="qA7TBKh8Xf4ynkCTTNnx-9" value="KDDI sends back to Vietlink" style="rounded=1;whiteSpace=wrap;html=1;fontSize=12;glass=0;strokeWidth=1;shadow=0;" vertex="1" parent="WIyWlLk6GJQsqaUBKTNV-1">
          <mxGeometry x="954" y="430" width="120" height="40" as="geometry" />
        </mxCell>
        <mxCell id="qA7TBKh8Xf4ynkCTTNnx-23" value="" style="edgeStyle=orthogonalEdgeStyle;rounded=0;orthogonalLoop=1;jettySize=auto;html=1;endArrow=block;endFill=0;" edge="1" parent="WIyWlLk6GJQsqaUBKTNV-1" source="qA7TBKh8Xf4ynkCTTNnx-10" target="qA7TBKh8Xf4ynkCTTNnx-9">
          <mxGeometry relative="1" as="geometry" />
        </mxCell>
        <mxCell id="qA7TBKh8Xf4ynkCTTNnx-10" value="KDDI fixes &lt;br&gt;by selves?" style="rhombus;whiteSpace=wrap;html=1;shadow=0;fontFamily=Helvetica;fontSize=12;align=center;strokeWidth=1;spacing=6;spacingTop=-4;" vertex="1" parent="WIyWlLk6GJQsqaUBKTNV-1">
          <mxGeometry x="964" y="498" width="100" height="80" as="geometry" />
        </mxCell>
        <mxCell id="qA7TBKh8Xf4ynkCTTNnx-13" value="KDDI releases" style="rounded=1;whiteSpace=wrap;html=1;fontSize=12;glass=0;strokeWidth=1;shadow=0;" vertex="1" parent="WIyWlLk6GJQsqaUBKTNV-1">
          <mxGeometry x="766" y="621" width="120" height="40" as="geometry" />
        </mxCell>
      </root>
    </mxGraphModel>
  </diagram>
</mxfile>
